<?xml version="1.0" encoding="UTF-8" standalone="no"?>
<svg
   xmlns:dc="http://purl.org/dc/elements/1.1/"
   xmlns:cc="http://creativecommons.org/ns#"
   xmlns:rdf="http://www.w3.org/1999/02/22-rdf-syntax-ns#"
   xmlns:svg="http://www.w3.org/2000/svg"
   xmlns="http://www.w3.org/2000/svg"
   xmlns:xlink="http://www.w3.org/1999/xlink"
   xmlns:sodipodi="http://sodipodi.sourceforge.net/DTD/sodipodi-0.dtd"
   xmlns:inkscape="http://www.inkscape.org/namespaces/inkscape"
   width="210mm"
   height="297mm"
   viewBox="0 0 210 297"
   version="1.1"
   id="svg899"
   inkscape:version="1.0.1 (3bc2e813f5, 2020-09-07)"
   sodipodi:docname="Appliner website icon.svg">
  <defs
     id="defs893">
    <linearGradient
       inkscape:collect="always"
       xlink:href="#linearGradient980"
       id="linearGradient1178"
       x1="-3255.1621"
       y1="-1718.0059"
       x2="-3255.1621"
       y2="433.51392"
       gradientUnits="userSpaceOnUse"
       gradientTransform="matrix(0.03689253,0,0,0.03689253,-788.98124,-963.99733)" />
    <linearGradient
       inkscape:collect="always"
       id="linearGradient980">
      <stop
         style="stop-color:#eb8628;stop-opacity:1"
         offset="0"
         id="stop978" />
      <stop
         style="stop-color:#ff00cc;stop-opacity:1"
         offset="1"
         id="stop976" />
    </linearGradient>
  </defs>
  <sodipodi:namedview
     id="base"
     pagecolor="#ffffff"
     bordercolor="#666666"
     borderopacity="1.0"
     inkscape:pageopacity="0.0"
     inkscape:pageshadow="2"
     inkscape:zoom="1"
     inkscape:cx="-3470.9907"
     inkscape:cy="-3698.4049"
     inkscape:document-units="px"
     inkscape:current-layer="layer1"
     inkscape:document-rotation="0"
     showgrid="false"
     showborder="false"
     inkscape:window-width="1460"
     inkscape:window-height="1009"
     inkscape:window-x="182"
     inkscape:window-y="0"
     inkscape:window-maximized="0" />
  <metadata
     id="metadata896">
    <rdf:RDF>
      <cc:Work
         rdf:about="">
        <dc:format>image/svg+xml</dc:format>
        <dc:type
           rdf:resource="http://purl.org/dc/dcmitype/StillImage" />
        <dc:title></dc:title>
      </cc:Work>
    </rdf:RDF>
  </metadata>
  <g
     inkscape:label="Warstwa 1"
     inkscape:groupmode="layer"
     id="layer1">
    <path
       id="path1166"
       style="fill:#333333;fill-opacity:1;fill-rule:nonzero;stroke:none;stroke-width:0.285474;stroke-miterlimit:4;stroke-dasharray:none"
       inkscape:transform-center-x="20.462823"
       inkscape:transform-center-y="2.7283758"
       d="m -869.3849,-987.6914 a 39.6875,39.6875 0 0 1 -39.6875,39.6875 39.6875,39.6875 0 0 1 -39.6875,-39.6875 39.6875,39.6875 0 0 1 39.6875,-39.6875 39.6875,39.6875 0 0 1 39.6875,39.6875 z" />
    <path
       id="path1168"
       style="fill:url(#linearGradient1178);fill-opacity:1;stroke-width:0.357463;stroke-miterlimit:4;stroke-dasharray:none"
       d="m -915.84459,-1019.0939 -22.91914,62.80364 12.30856,3.7e-4 6.58742,-18.05119 17.3646,8.5e-4 -4.21961,-11.56288 -8.92538,-5.5e-4 6.57552,-18.01854 4.02212,11.02143 0.0354,-0.0129 6.26906,17.17888 12.26813,-10e-4 -15.82264,-43.35781 z m 30.82913,47.36555 -12.26813,10e-4 0.86819,2.37899 12.26813,-0.001 z m 2.33061,6.38654 -12.30813,10e-4 0.89568,2.45442 12.30813,-10e-4 z m 2.35825,6.462 -12.30828,8.4e-4 0.94509,2.58971 12.30872,3.7e-4 z" />
  </g>
</svg>
